PathFileType	3	(X/Y/Z)	D:\Jess\Healthy\Labelled\HA21\20251027\SRRun01.trc
DataRate	CameraRate	NumFrames	NumMarkers	Units	OrigDataRate	OrigDataStartFrame	OrigNumFrames
250.0	250.0	4	33	mm	250.0	39500	4001
Frame#	Time	C7			T10			CLAV			LSHO			RSHO			LASIS			RASIS			LPSIS			RPSIS			LILCR			RILCR			LGTR			LTHI			LLTHI			LLEP			LPSH			LLSH			LDSH			LLMAL			LTOE			L5TH			LHEE			RGTR			RTHI			RLTHI			RLEP			RPSH			RLSH			RDSH			RLMAL			RTOE			R5TH			RHEE			
		X1	Y1	Z1	X2	Y2	Z2	X3	Y3	Z3	X4	Y4	Z4	X5	Y5	Z5	X6	Y6	Z6	X7	Y7	Z7	X8	Y8	Z8	X9	Y9	Z9	X10	Y10	Z10	X11	Y11	Z11	X12	Y12	Z12	X13	Y13	Z13	X14	Y14	Z14	X15	Y15	Z15	X16	Y16	Z16	X17	Y17	Z17	X18	Y18	Z18	X19	Y19	Z19	X20	Y20	Z20	X21	Y21	Z21	X22	Y22	Z22	X23	Y23	Z23	X24	Y24	Z24	X25	Y25	Z25	X26	Y26	Z26	X27	Y27	Z27	X28	Y28	Z28	X29	Y29	Z29	X30	Y30	Z30	X31	Y31	Z31	X32	Y32	Z32	X33	Y33	Z33	

3501	157.996	765.9542901941626	1465.809475022086	-867.2855157530653	779.9214810734401	1242.319741121282	-823.0851662722171	782.3722702416994	1397.665300597396	-1022.480423030467	612.2215026593616	1453.383479068281	-956.4301618475662	922.9652103892405	1452.415010410349	-957.2980813890294	662.9934442780286	965.4062855598179	-969.2740507110509	896.945330927625	953.3713135773833	-996.5406797021149	785.4525897096224	1012.365743018087	-798.796891183684	817.6707431718345	1011.427959827978	-802.2947838467875	614.0475291643465	1029.069642613996	-915.3106575689368	951.0840994421683	1043.469692810911	-914.0111470431041	602.0769911559729	842.7042467047715	-889.2086310231361	655.7490286931582	702.0928339560822	-1048.379984542243	629.0489865808479	609.8202533978462	-945.3801598007973	655.158601200142	470.747993117175	-973.1924722215377	709.6553552405388	379.6485024171877	-1012.142385243836	662.3423321045881	302.4201971507353	-901.9708891789295	728.4135574564739	217.7982844262849	-924.9504722472138	707.7972060636923	116.6778532706523	-814.6479542589616	708.7284556863875	60.29391725115628	-959.676719015985	665.4082794833749	41.97627337601682	-898.1976823933143	767.7959450726588	81.37740798290201	-731.0536502057857	975.7747848998468	825.2853655786387	-939.8537520070334	886.8247961301312	691.8385299013411	-1066.218123012039	944.8185296674554	577.4343311137944	-967.1357160375428	925.2161146202506	492.6473656471263	-973.7626104458641	872.4789306401671	399.5877698178502	-924.9259041269283	933.6997660757692	447.3804980321833	-818.5948128455473	877.7033325308731	380.6086117057384	-753.0042560916781	905.9531288416534	406.7154332055597	-617.2759749661984	906.1760944580632	247.5028975171346	-587.3026665238773	943.0843583488024	292.6713436262263	-554.2088672289118	846.4587970415508	472.3116465529474	-577.2427994138574	
3502	158	765.069398694194	1465.854854559856	-866.7907569302267	778.8647897244732	1242.360435519588	-822.4095238234745	783.230885978197	1397.601462244004	-1021.766824197399	612.3339631967623	1453.392966421312	-957.5832386488385	923.082453610157	1452.529347845847	-955.0444700031845	662.7997015813326	964.7291474524444	-968.6209805956637	896.9518410720855	953.0096848056377	-995.2312436452873	784.8991974877517	1012.67293371477	-797.9546605385923	817.0881435111697	1011.734370710586	-801.3252510641706	613.9527595519746	1028.264753585766	-915.0677763735041	950.8998838596785	1043.183289656842	-911.6147600179663	601.9467768083836	842.6369975015739	-887.2642559969715	656.3245867604023	700.3011030836553	-1044.562287535653	628.6836798217817	609.2622373742995	-940.6389699323058	654.8730877695285	469.5533841302138	-966.1929545735635	709.2702269294697	377.9348039648378	-1003.807132044821	662.0652629312287	302.0450294082013	-892.7997275878703	727.9734880424468	217.2711572417693	-914.5674074080501	707.2559361756159	117.3732641081531	-802.974294634595	708.3837520784505	60.04224497063001	-947.6093627019122	665.1903120002924	41.81643507332792	-886.0263089662603	767.4630611181638	82.46950523092318	-719.181077685883	975.7970337631457	825.4913623333549	-939.0483759591482	886.5546329341854	695.0100808509476	-1068.554100718901	944.9235873113029	578.8634704431794	-972.4370121277652	925.0350953452188	494.2459930651846	-980.8702318142982	872.1765588890112	400.7089934503193	-933.3356875290534	933.7043610492306	447.0449154895955	-826.572401684134	877.7070324886394	379.5510159453768	-761.6742805092425	906.2185492292092	403.7580887841282	-625.7203493464411	906.4252276984812	244.1440534825243	-598.6958125712455	943.5493768146407	288.6614670039223	-564.9952457627503	846.9578227440173	468.7100548925989	-584.1798219381694	
3503	158.004	764.2497853921084	1466.19889696584	-866.3100125272009	777.8426217892712	1242.707689047088	-821.783911522421	784.1376470477687	1397.884539711638	-1021.038183442917	612.5379840773334	1453.736280557632	-958.7128633137812	923.2070912679741	1452.965750567228	-952.7923427872607	662.6517454121811	964.4073766943902	-968.1054932058789	897.0181329997581	953.1526778296611	-993.9666607619321	784.2830370835319	1013.254046850146	-797.2015537673806	816.4405172528305	1012.330754928637	-800.4365800565481	613.8973346389192	1028.014999298157	-914.9426175200095	950.7292313231117	1043.370556638083	-909.2678325954345	601.8036935049666	842.8619573537871	-885.5163044800505	656.9591364892477	698.6979795893429	-1040.641043584073	628.3421309353433	608.9806894888728	-935.7046088442837	654.5870151855898	468.5909741202352	-958.8367278817726	708.8508813302159	376.4414029737529	-995.1492735553388	661.7546661398292	301.8458757515803	-883.4000639704597	727.4885558257262	216.9403921096541	-904.0382682803123	706.6419052607306	118.1636669927383	-791.2720253992003	708.0255848679532	59.77789713210089	-935.5156839871034	664.9607529763798	41.6295277601889	-873.8285721849207	767.0630696481411	83.71253296388089	-707.2981733254967	975.8566546621836	826.0999363441523	-938.1690363217891	886.2446524493008	698.6370858155186	-1070.780058975908	945.0224531528477	580.7447524896955	-977.6796372785425	924.8263269347328	496.2609111499298	-987.8400001635875	871.8943451385687	402.136942756625	-941.7265851286816	933.674205098898	446.810772680181	-834.4464390903296	877.684891298064	378.4488739094054	-770.4016281143031	906.42185342328	400.4501879361741	-634.1866948594886	906.5243534161144	240.4349942894516	-610.4080149778653	943.8505387906404	284.1990546628285	-575.9877838235478	847.420451009029	464.6672649912206	-591.0588038806667	
3504	158.008	763.4962419580138	1466.83139364955	-865.8418896003686	776.8520081515928	1243.346449120366	-821.2155022732296	785.0917290644754	1398.505494472779	-1020.300291510414	612.827816391383	1454.405720604733	-959.8141814873503	923.3434867795869	1453.712450379174	-950.5440036669614	662.5512324051417	964.4379753583896	-967.7310456886687	897.1423511480796	953.7923316917988	-992.7583009481982	783.6058829898423	1014.094588217839	-796.5428895605629	815.7313924360699	1013.200072991342	-799.6346035570964	613.8758957223695	1028.312570256845	-914.9410936403705	950.5667130828094	1044.003467940018	-906.9983820675363	601.6438003546223	843.3626505720204	-883.9829059842878	657.6316032262052	697.2631737504903	-1036.625409640457	628.0353614027973	608.974316347642	-930.5864017777054	654.309412399702	467.8764610926046	-951.1481686523209	708.4150074912745	375.1868842913699	-986.1954051036212	661.4218695953393	301.8416455976527	-873.7924325183096	726.9762520650828	216.8174527633104	-893.3840349650663	705.9713123080168	119.0625725522365	-779.5538798234289	707.6662539488775	59.50608629757011	-923.3964190684472	664.7273464561031	41.42957503454038	-861.605114283249	766.6047408325081	85.12474875997289	-695.4144607844386	975.9475300725478	827.0995541801377	-937.2478103267313	885.9079228859695	702.6843738132545	-1072.893141701343	945.1131323289954	583.0553736767065	-982.8359931626043	924.5975643148781	498.669644308061	-994.6410031088726	871.6383263974333	403.8564630756816	-950.0707293875832	933.6131549831941	446.6666709055569	-842.1976254193178	877.6373955071018	377.3007890301477	-779.1716863117728	906.5588898010587	396.8036408727405	-642.6721325811978	906.4772204407432	236.4039025684001	-622.4211794271961	943.9871367973741	279.3137456749591	-587.175656190596	847.8334092094228	460.1891427487024	-597.8904579905713	
